<?xml version="1.0" encoding="iso-8859-1"?>
<!-- Uploaded to: SVG Repo, www.svgrepo.com, Generator: SVG Repo Mixer Tools -->
<svg height="10px" width="10px" version="1.1" id="Layer_1" xmlns="http://www.w3.org/2000/svg" xmlns:xlink="http://www.w3.org/1999/xlink" 
	 viewBox="0 0 512 512" xml:space="preserve">
<path d="M27.43,215.417H512v150.298c0,4.661-3.779,8.44-8.44,8.44H35.87c-4.661,0-8.44-3.779-8.44-8.44
	V215.417z fill=#FFE15A"/>
<path d="M512,215.417H27.43V65.118c0-4.661,3.779-8.44,8.44-8.44h467.69c4.661,0,8.44,3.779,8.44,8.44
	V215.417z fill=#4173CD"/>
<path d="M19.122,488.1L19.122,488.1C8.561,488.1,0,479.539,0,468.979V42.864C0,32.39,8.491,23.9,18.965,23.9
	h0.157c10.561,0,19.122,8.561,19.122,19.122V468.98C38.244,479.539,29.683,488.1,19.122,488.1z fill=#2E3033"/>
</svg>