<?xml version="1.0" standalone="no"?>
<!DOCTYPE svg PUBLIC "-//W3C//DTD SVG 20010904//EN"
 "http://www.w3.org/TR/2001/REC-SVG-20010904/DTD/svg10.dtd">
<svg version="1.0" xmlns="http://www.w3.org/2000/svg"
 width="320.000000pt" height="320.000000pt" viewBox="0 0 320.000000 320.000000"
 preserveAspectRatio="xMidYMid meet">
<metadata>
Created by potrace 1.14, written by Peter Selinger 2001-2017
</metadata>
<g transform="translate(0.000000,320.000000) scale(0.100000,-0.100000)"
fill="#000000" stroke="none">
<path d="M1385 2766 c-282 -41 -516 -161 -708 -361 -126 -131 -226 -329 -252
-499 -3 -22 -7 -41 -8 -43 -8 -7 -85 42 -104 67 -35 44 -55 137 -51 242 l3 92
54 2 c132 5 215 139 161 260 -24 56 -66 104 -89 104 -9 0 -31 -24 -48 -53 -18
-28 -51 -72 -73 -97 l-40 -45 4 40 c3 22 8 74 11 115 4 41 9 79 12 83 3 4 0
14 -7 22 -22 27 -149 -27 -198 -85 -74 -87 -63 -236 23 -300 22 -16 32 -31 29
-41 -8 -26 -8 -161 0 -199 43 -209 152 -353 286 -377 34 -6 37 -11 44 -64 8
-58 27 -124 63 -209 l27 -67 64 2 c40 1 65 -2 67 -9 2 -6 9 -32 17 -57 l14
-46 -45 -19 c-95 -38 -189 -166 -207 -280 -8 -49 -8 -111 0 -149 3 -11 5 -23
5 -27 1 -5 9 -8 19 -8 11 0 31 20 50 49 43 66 125 139 200 179 34 18 62 31 62
29 0 -3 -15 -28 -34 -56 -61 -90 -88 -186 -87 -314 0 -57 14 -92 32 -81 5 3
36 46 70 95 33 49 87 117 120 152 65 67 64 70 33 -47 -22 -83 -20 -170 5 -237
23 -61 65 -109 81 -93 5 5 20 53 34 105 13 53 36 121 50 151 33 70 81 122 104
113 21 -9 109 -35 136 -42 169 -38 425 -12 574 60 l52 25 12 -21 c47 -84 71
-258 49 -349 -7 -29 -5 -40 6 -49 30 -26 137 113 172 222 25 79 31 201 12 252
-13 34 -5 34 26 0 33 -38 66 -105 93 -188 12 -38 25 -77 29 -85 41 -78 101
166 73 296 -12 57 -41 124 -73 173 l-22 33 34 -17 c52 -27 150 -99 185 -137
17 -18 47 -55 65 -83 40 -59 56 -65 70 -28 46 121 -36 281 -218 431 -24 19
-43 37 -43 41 0 3 34 6 75 6 42 0 80 2 86 5 12 8 18 67 20 205 l1 111 41 1
c61 3 123 39 203 118 114 112 180 233 185 340 2 39 6 45 29 50 44 10 88 42
117 87 23 37 27 54 28 123 2 85 -14 166 -32 172 -7 3 -29 -12 -50 -32 -21 -20
-55 -50 -75 -66 l-38 -30 4 113 c2 62 0 118 -6 125 -22 27 -136 -39 -186 -108
-70 -95 -65 -214 13 -296 26 -26 42 -52 40 -63 -2 -9 -6 -35 -9 -56 -16 -101
-119 -236 -224 -291 l-42 -22 -5 22 c-2 12 -7 49 -10 82 -13 134 -66 307 -127
414 -124 219 -308 346 -593 407 -97 21 -358 27 -470 10z"/>
</g>
</svg>
